<?xml version="1.0" standalone="no"?>
<!DOCTYPE svg PUBLIC "-//W3C//DTD SVG 20010904//EN"
 "http://www.w3.org/TR/2001/REC-SVG-20010904/DTD/svg10.dtd">
<svg version="1.0" xmlns="http://www.w3.org/2000/svg"
 width="1024.000000pt" height="1024.000000pt" viewBox="0 0 1024.000000 1024.000000"
 preserveAspectRatio="xMidYMid meet">

<g transform="translate(0.000000,1024.000000) scale(0.100000,-0.100000)"
fill="#000000" stroke="none">
<path d="M6174 8436 c-17 -13 -19 -27 -19 -136 0 -116 1 -123 24 -141 29 -24
53 -24 80 -1 19 15 21 28 22 137 1 112 0 120 -21 137 -27 22 -59 23 -86 4z"/>
<path d="M5646 8194 c-14 -15 -26 -32 -26 -39 0 -14 127 -159 159 -182 19 -13
25 -13 44 0 32 21 51 61 40 81 -19 34 -157 166 -173 166 -10 0 -29 -12 -44
-26z"/>
<path d="M6740 8207 c-9 -7 -46 -44 -83 -84 -73 -79 -82 -108 -45 -143 39 -36
61 -26 147 67 86 93 96 118 61 153 -22 22 -57 26 -80 7z"/>
<path d="M6122 8059 c-71 -14 -173 -70 -233 -129 -138 -136 -177 -357 -93
-529 36 -73 161 -198 235 -234 129 -64 307 -53 445 28 61 36 149 136 185 213
30 60 33 76 33 157 1 162 -44 276 -146 371 -121 111 -269 154 -426 123z m216
-144 c28 -13 52 -29 52 -35 0 -5 8 -10 19 -10 24 0 81 -63 109 -121 27 -56 46
-151 39 -200 -8 -57 -55 -153 -95 -192 -20 -20 -66 -49 -102 -65 -74 -33 -160
-50 -160 -32 0 7 -7 10 -15 6 -8 -3 -38 2 -67 11 -61 20 -155 103 -196 172
-25 43 -27 54 -27 161 0 92 4 122 19 152 71 143 281 220 424 153z"/>
<path d="M6439 7772 c-5 -32 5 -138 14 -144 16 -10 27 13 17 32 -5 10 -5 21 0
26 13 13 0 82 -16 88 -8 3 -15 2 -15 -2z"/>
<path d="M6436 7548 c-9 -36 -7 -48 9 -48 11 0 13 8 8 33 -8 41 -9 43 -17 15z"/>
<path d="M6471 7484 c0 -11 3 -14 6 -6 3 7 2 16 -1 19 -3 4 -6 -2 -5 -13z"/>
<path d="M6270 7350 c-12 -8 -11 -10 8 -10 12 0 22 5 22 10 0 13 -11 13 -30 0z"/>
<path d="M5410 7673 c-52 -20 -63 -63 -28 -108 l21 -27 114 4 c125 5 153 18
153 68 0 56 -18 65 -137 67 -59 1 -115 0 -123 -4z"/>
<path d="M6863 7673 c-58 -4 -83 -26 -83 -74 0 -46 27 -59 121 -59 46 0 101 5
121 10 60 17 76 69 35 108 -24 23 -50 25 -194 15z"/>
<path d="M4894 7509 c-192 -22 -353 -137 -440 -316 -53 -108 -64 -177 -64
-424 l0 -156 -332 1 c-293 0 -340 -2 -393 -18 -93 -28 -171 -74 -226 -134
-103 -113 -143 -221 -137 -372 3 -91 6 -103 47 -185 72 -146 193 -244 339
-274 32 -7 177 -11 367 -11 172 0 320 -3 329 -6 14 -5 16 -29 16 -165 0 -106
5 -186 16 -237 18 -91 77 -219 134 -290 78 -99 234 -191 360 -212 232 -39 474
116 571 365 32 81 41 163 51 465 l3 75 375 5 c404 6 405 6 505 64 57 34 158
142 189 204 32 63 56 159 56 226 0 63 -34 188 -68 246 -55 96 -175 198 -277
236 -45 17 -88 19 -417 22 l-368 3 0 202 c0 232 -8 276 -71 398 -53 101 -148
194 -251 243 -40 19 -89 37 -108 40 -78 11 -139 13 -206 5z m252 -163 c114
-51 214 -185 234 -313 5 -32 12 -130 15 -219 3 -88 10 -176 15 -195 6 -18 10
-55 10 -81 0 -26 5 -50 11 -54 6 -4 196 -10 423 -13 391 -7 413 -8 458 -29 58
-26 133 -94 158 -142 79 -155 56 -326 -59 -441 -97 -97 -109 -99 -519 -100
-191 -1 -381 -4 -422 -8 l-75 -6 -7 -253 c-7 -271 -14 -324 -60 -416 -61 -121
-166 -199 -304 -226 -54 -11 -71 -10 -144 9 -46 11 -103 32 -127 46 -85 51
-169 186 -198 321 -9 41 -18 158 -22 292 -3 122 -7 223 -7 224 -1 0 -185 4
-411 7 l-410 6 -55 27 c-88 43 -135 90 -177 176 -35 70 -38 83 -38 162 0 76 4
92 32 150 45 91 81 131 155 171 l63 34 390 2 c215 1 408 6 430 11 22 6 33 10
24 11 -13 1 -15 10 -12 49 2 26 7 154 12 284 9 235 9 238 39 302 37 80 97 146
169 187 88 50 126 59 243 56 89 -3 114 -8 166 -31z"/>
<path d="M4840 6945 c-171 -82 -253 -203 -267 -398 -10 -129 -8 -376 4 -612 9
-185 11 -204 36 -255 44 -92 107 -154 204 -202 79 -39 92 -43 162 -42 96 1
182 32 232 84 66 69 115 154 139 241 21 80 22 94 17 438 -5 375 -9 417 -57
545 -26 69 -100 147 -180 191 -47 25 -68 30 -145 33 -80 3 -96 0 -145 -23z
m210 -140 c74 -38 114 -78 146 -147 28 -62 29 -66 32 -275 l4 -211 -266 0
-266 0 -2 146 c-6 314 -6 310 32 381 38 70 53 83 131 111 74 27 129 25 189 -5z
m178 -820 c5 -71 -15 -241 -32 -273 -35 -67 -154 -142 -227 -142 -50 0 -134
45 -172 93 -76 95 -81 110 -85 249 l-4 128 258 -2 259 -3 3 -50z"/>
<path d="M4852 6637 c-36 -37 -33 -47 13 -47 28 0 34 5 48 40 15 39 15 40 -7
40 -12 0 -37 -15 -54 -33z"/>
<path d="M5075 5740 c-9 -15 4 -30 26 -30 11 0 17 5 14 10 -4 6 -11 8 -16 5
-5 -3 -6 1 -3 9 7 17 -11 22 -21 6z"/>
<path d="M5041 5696 c-8 -9 -8 -16 -2 -20 6 -4 15 3 21 14 12 23 -2 27 -19 6z"/>
<path d="M4995 5650 c-3 -5 1 -10 9 -10 9 0 16 5 16 10 0 6 -4 10 -9 10 -6 0
-13 -4 -16 -10z"/>
<path d="M6616 7204 c-14 -15 -26 -35 -26 -45 0 -11 37 -57 83 -104 61 -63 89
-85 108 -85 29 0 69 37 69 64 0 24 -168 196 -190 196 -10 0 -29 -12 -44 -26z"/>
<path d="M5728 7173 c-102 -96 -130 -156 -86 -187 42 -30 62 -20 158 80 l92
96 -28 29 c-41 43 -74 39 -136 -18z"/>
<path d="M6177 7032 c-14 -15 -17 -40 -17 -124 0 -117 10 -138 67 -138 53 0
63 23 63 143 0 98 -2 107 -22 121 -30 21 -71 20 -91 -2z"/>
<path d="M3343 7017 c-14 -11 -23 -29 -23 -45 0 -32 8 -46 35 -59 28 -14 749
-8 804 7 54 14 72 47 47 85 -9 14 -24 25 -34 25 -9 0 -194 1 -411 2 -369 3
-396 2 -418 -15z"/>
<path d="M2533 6803 l-142 -4 -27 -32 c-26 -31 -26 -34 -20 -120 4 -48 12 -99
18 -112 10 -22 7 -29 -33 -72 -136 -146 -186 -294 -155 -456 19 -100 56 -167
131 -243 107 -108 243 -161 393 -152 236 14 442 233 444 473 2 140 -43 253
-144 360 l-61 66 11 50 c24 101 10 206 -31 234 -22 16 -16 15 -384 8z m302
-160 c-4 -21 -9 -42 -12 -46 -3 -5 -44 -6 -92 -2 -47 3 -120 2 -161 -4 -41 -5
-75 -9 -76 -8 -1 1 -5 23 -9 50 l-7 47 182 0 182 0 -7 -37z m-23 -230 c87 -45
99 -65 64 -102 -14 -15 -26 -30 -26 -34 0 -15 41 -6 60 13 19 19 19 19 39 -6
21 -26 61 -124 61 -148 0 -11 -15 -13 -66 -8 l-65 5 3 -44 3 -44 45 3 c25 2
53 6 63 8 11 4 17 0 17 -10 0 -29 -42 -127 -66 -154 l-24 -27 -25 28 c-25 28
-45 29 -45 1 0 -8 11 -20 25 -26 31 -14 31 -19 3 -45 -31 -28 -83 -54 -140
-69 l-48 -12 0 50 c0 48 -1 49 -27 46 -27 -3 -28 -5 -25 -50 3 -37 0 -48 -11
-48 -34 0 -149 42 -174 64 l-28 24 28 22 c30 24 35 45 12 54 -15 5 -23 -1 -50
-39 -14 -20 -15 -19 -40 10 -35 42 -62 94 -70 138 l-7 38 63 -3 c64 -3 64 -3
67 25 5 44 -13 57 -78 57 l-58 0 12 53 c14 58 44 127 56 127 4 0 32 25 62 55
40 40 71 61 111 75 76 27 91 26 82 -2 -23 -77 -33 -334 -14 -371 35 -67 90
-88 111 -42 6 13 19 27 30 30 26 9 23 42 -5 49 -23 5 -24 9 -31 153 -3 82 -9
163 -12 181 -6 32 -6 32 22 22 15 -6 59 -27 96 -47z"/>
<path d="M2420 6333 c0 -12 10 -25 26 -32 37 -17 39 -9 4 24 -27 26 -30 27
-30 8z"/>
<path d="M7158 6571 c-152 -50 -266 -171 -313 -334 -22 -75 -22 -217 -1 -276
76 -211 285 -353 498 -338 150 10 303 122 376 274 l37 78 0 135 c0 130 -1 137
-31 201 -46 97 -138 191 -233 236 -69 33 -84 37 -176 40 -78 2 -113 -1 -157
-16z m261 -140 c56 -29 136 -104 166 -156 30 -52 38 -91 37 -186 -1 -63 -6
-88 -28 -134 -38 -82 -74 -117 -156 -156 -64 -30 -83 -34 -153 -34 -63 0 -89
5 -122 22 -58 31 -132 108 -168 173 -27 49 -30 64 -29 140 0 128 23 190 92
260 76 76 140 101 242 97 53 -3 88 -10 119 -26z"/>
<path d="M7476 5978 c-7 -18 -12 -35 -10 -37 8 -9 42 42 37 55 -8 20 -11 18
-27 -18z"/>
<path d="M2604 5353 c-32 -6 -56 -37 -52 -69 7 -63 128 -95 169 -45 26 32 25
77 -3 95 -26 16 -82 25 -114 19z"/>
<path d="M2903 5349 c-22 -12 -33 -36 -33 -77 0 -27 52 -62 92 -62 87 0 141
77 88 125 -24 22 -114 30 -147 14z"/>
<path d="M7245 5348 c-28 -16 -35 -28 -35 -64 0 -43 27 -64 84 -64 63 0 96 22
96 65 0 60 -85 97 -145 63z"/>
<path d="M2316 5328 c-37 -53 -3 -98 74 -98 45 0 51 3 65 30 33 64 14 90 -66
90 -48 0 -60 -4 -73 -22z"/>
<path d="M3401 5343 c-123 -2 -199 -8 -208 -14 -15 -13 -17 -57 -4 -77 15 -25
149 -31 557 -27 383 3 409 5 433 23 35 26 36 72 1 89 -25 13 -222 14 -779 6z"/>
<path d="M5745 5325 c-31 -30 -31 -36 1 -69 l27 -26 201 -2 c110 -1 219 -2
241 -1 22 1 144 2 271 2 131 0 242 4 257 10 15 6 33 24 41 43 13 30 12 34 -6
51 -19 16 -58 17 -515 17 l-494 0 -24 -25z"/>
<path d="M6882 5334 c-29 -20 -28 -59 3 -89 20 -21 34 -25 80 -25 49 0 60 4
86 29 34 35 36 54 9 81 -26 26 -143 29 -178 4z"/>
<path d="M3085 4473 c-49 -12 -48 -1 -40 -423 6 -383 7 -396 27 -417 26 -28
58 -29 89 -4 24 19 24 22 22 185 l-2 166 195 0 c178 0 194 -1 195 -17 0 -10 0
-86 -1 -169 -2 -148 -1 -152 21 -168 31 -21 82 -20 102 2 20 22 25 96 32 509
5 294 5 303 -15 323 -27 27 -105 28 -119 2 -5 -9 -12 -87 -16 -173 l-8 -156
-183 -7 c-101 -4 -189 -4 -194 -1 -6 4 -10 72 -10 170 0 152 -1 165 -19 175
-20 10 -42 11 -76 3z"/>
<path d="M4321 4463 c-19 -16 -144 -268 -181 -363 -7 -19 -26 -65 -42 -102
-32 -76 -88 -282 -88 -326 0 -36 21 -55 60 -55 45 0 65 26 94 118 l26 83 162
4 c116 3 167 1 176 -7 7 -7 22 -44 32 -84 10 -40 26 -81 36 -92 19 -21 85 -26
130 -9 24 9 26 14 22 48 -6 41 -56 176 -143 382 -31 74 -77 191 -102 260 -25
69 -52 133 -61 143 -10 11 -30 17 -57 17 -26 0 -51 -7 -64 -17z m61 -270 c6
-16 30 -70 54 -122 24 -52 41 -98 38 -103 -6 -9 -234 -11 -234 -3 0 3 15 34
34 68 18 34 43 90 56 125 12 34 27 62 32 62 4 0 14 -12 20 -27z"/>
<path d="M7388 4468 c-18 -15 -83 -172 -169 -408 -33 -91 -80 -216 -105 -278
-24 -61 -44 -119 -44 -126 0 -40 102 -62 134 -30 22 21 30 38 56 115 l22 66
173 -1 c101 -1 178 -5 184 -11 5 -5 19 -44 30 -85 12 -41 29 -81 38 -87 21
-16 105 -17 121 -1 28 28 7 115 -82 338 -26 63 -56 140 -68 170 -36 94 -150
335 -162 342 -18 12 -111 9 -128 -4z m113 -305 c19 -42 48 -106 66 -142 18
-36 30 -67 28 -69 -2 -2 -61 -7 -130 -10 l-127 -5 7 33 c4 18 29 84 56 146 27
63 49 119 49 125 0 24 20 -6 51 -78z"/>
<path d="M2174 4453 c-15 -15 -16 -32 -10 -143 3 -69 6 -245 6 -391 0 -246 1
-269 19 -290 26 -32 86 -32 113 1 17 21 19 38 17 139 l-3 116 115 5 c94 5 124
10 169 31 112 52 171 133 178 244 8 123 -44 219 -147 273 l-63 32 -188 0
c-165 0 -191 -2 -206 -17z m373 -150 c95 -45 95 -166 -1 -237 -22 -17 -45 -22
-127 -24 l-99 -4 0 141 0 141 96 0 c69 0 106 -5 131 -17z"/>
<path d="M5027 4464 c-4 -4 -7 -186 -7 -404 0 -387 1 -398 21 -424 26 -33 62
-34 96 0 25 25 25 27 21 144 l-4 118 80 7 c95 8 77 22 195 -161 71 -110 82
-122 114 -128 39 -7 117 18 117 38 0 6 -38 69 -85 140 l-85 130 45 41 c54 50
86 118 93 201 9 118 -54 227 -160 275 -49 22 -68 24 -243 27 -105 2 -194 0
-198 -4z m367 -158 c71 -30 97 -110 58 -186 -29 -58 -71 -75 -187 -75 l-100 0
-3 138 -3 137 101 0 c63 0 113 -5 134 -14z"/>
<path d="M6000 4460 c-13 -8 -15 -65 -18 -392 -3 -255 0 -392 7 -411 20 -52
105 -63 115 -14 8 39 16 197 16 352 l0 150 24 -55 c144 -336 179 -390 236
-360 35 19 96 111 168 255 108 216 106 217 98 -75 -8 -294 -8 -294 75 -298 43
-2 59 1 70 14 11 13 14 90 17 393 2 208 0 392 -5 411 l-9 35 -71 3 -71 3 -54
-88 c-83 -133 -154 -262 -193 -348 -19 -42 -40 -75 -46 -73 -6 2 -17 19 -24
38 -22 60 -173 400 -193 433 -16 29 -23 32 -73 35 -29 1 -61 -2 -69 -8z"/>
<path d="M4348 3340 c-22 -6 -23 -12 -30 -116 -4 -61 -4 -173 0 -250 l7 -139
149 -3 c159 -3 176 2 176 45 0 56 -13 63 -114 63 -51 0 -95 2 -97 4 -2 3 -3
25 -1 50 l4 45 81 3 82 3 0 45 0 45 -87 3 -88 3 0 49 0 50 93 0 c59 0 97 4
105 12 13 13 17 88 5 89 -41 4 -267 3 -285 -1z"/>
<path d="M4859 3343 c-23 -6 -29 -64 -29 -292 0 -212 2 -221 51 -221 43 0 59
24 59 88 0 124 24 132 105 35 31 -38 67 -80 80 -95 23 -28 48 -34 93 -22 37
10 26 40 -55 146 -43 55 -82 106 -87 113 -7 10 3 29 35 67 60 71 119 153 119
166 0 12 -65 25 -88 17 -9 -3 -57 -50 -107 -105 l-90 -100 -3 92 c-1 51 -8 98
-14 105 -10 13 -36 15 -69 6z"/>
<path d="M3016 3327 c-17 -12 -14 -26 55 -237 41 -124 82 -233 92 -243 45 -45
86 4 147 176 32 87 43 102 53 70 20 -64 77 -207 91 -228 14 -21 24 -26 49 -23
37 4 40 11 113 243 53 172 62 218 44 240 -18 21 -77 19 -89 -2 -16 -32 -71
-201 -71 -222 0 -11 -4 -22 -9 -26 -12 -7 -26 19 -34 62 -4 17 -20 68 -37 112
-26 67 -36 82 -57 87 -14 4 -33 2 -42 -3 -18 -12 -54 -99 -82 -203 -12 -41
-24 -79 -29 -83 -4 -4 -12 11 -18 35 -32 133 -44 173 -63 213 -19 41 -24 45
-58 45 -21 0 -45 -6 -55 -13z"/>
<path d="M3830 3314 c-6 -14 -10 -126 -10 -249 0 -265 -21 -237 175 -233 l130
3 3 44 c2 28 -1 47 -10 52 -7 5 -52 9 -100 9 l-86 0 -4 49 -3 50 92 6 c86 7
92 9 98 32 3 14 3 33 0 44 -6 17 -16 19 -96 19 l-89 0 0 50 c0 28 3 49 8 49 4
-1 49 -1 100 0 103 1 109 5 98 66 l-7 35 -145 0 -144 0 -10 -26z"/>
<path d="M5412 3323 c-6 -10 -11 -116 -13 -235 -3 -183 -2 -220 11 -232 12
-12 46 -15 157 -17 78 0 146 2 152 6 15 9 14 70 -1 83 -7 5 -57 13 -111 17
-81 6 -97 10 -93 22 3 8 6 28 6 44 l0 29 74 0 c99 0 106 4 106 51 0 48 -21 59
-116 59 l-64 0 0 45 0 45 58 1 c31 0 77 4 102 7 45 7 45 7 45 47 l0 40 -152 3
c-137 2 -153 1 -161 -15z"/>
<path d="M5937 3333 c-4 -3 -7 -109 -7 -235 0 -217 1 -229 21 -249 18 -18 50
-19 69 -2 7 6 19 132 19 206 1 40 5 66 10 62 6 -3 45 -51 89 -108 112 -144
135 -167 169 -167 52 0 53 5 53 262 l0 238 -44 0 c-25 0 -48 -5 -51 -11 -4 -6
-10 -70 -13 -142 l-7 -132 -74 95 c-113 145 -159 190 -196 190 -18 0 -35 -3
-38 -7z"/>
<path d="M6566 3324 c-3 -9 -6 -116 -6 -239 0 -189 2 -226 16 -239 15 -16 22
-16 186 -1 160 14 273 199 209 341 -26 57 -84 110 -148 134 -71 26 -247 29
-257 4z m224 -109 c53 -28 75 -63 75 -120 0 -85 -56 -144 -144 -153 l-51 -5 0
153 0 152 47 -7 c26 -4 59 -13 73 -20z"/>
<path d="M7173 3240 c-50 -20 -34 -99 24 -121 16 -6 133 -9 296 -7 l269 3 24
30 c29 36 30 46 5 76 l-19 24 -289 2 c-159 1 -298 -2 -310 -7z"/>
<path d="M2171 3214 c-28 -35 -26 -50 7 -83 l28 -28 269 4 c149 2 284 6 302 9
56 8 83 79 41 108 -19 14 -67 16 -324 16 l-303 0 -20 -26z"/>
</g>
</svg>
